<svg width="1257" height="884" viewBox="0 0 1257 884" xmlns="http://www.w3.org/2000/svg"><g transform="translate(1 1)" fill="#FFF" stroke="#FFF" fill-rule="evenodd" fill-opacity=".31" opacity=".507"><circle cx="187" cy="153" r="26"/><circle cx="345" cy="382" r="26"/><circle cx="523" cy="231" r="26"/><circle cx="813" cy="589" r="26"/><circle cx="957" cy="763" r="26"/><circle cx="1113" cy="615" r="26"/><circle cx="575" cy="464" r="26"/><circle cx="397" cy="589" r="26"/><circle cx="161" cy="563" r="26"/><circle cx="78" cy="382" r="26"/><circle cx="26" cy="737" r="26"/><circle cx="266" cy="737" r="26"/><circle cx="423" cy="856" r="26"/><circle cx="594" cy="856" r="26"/><circle cx="594" cy="711" r="26"/><circle cx="787" cy="382" r="26"/><circle cx="983" cy="382" r="26"/><circle cx="1229" cy="408" r="26"/><circle cx="735" cy="179" r="26"/><circle cx="1009" cy="78" r="26"/><circle cx="549" cy="52" r="26"/><circle cx="26" cy="26" r="26"/></g></svg>