
<svg width="1108px" height="832px" viewBox="0 0 1108 832" version="1.1" xmlns="http://www.w3.org/2000/svg" xmlns:xlink="http://www.w3.org/1999/xlink">
    <!-- Generator: Sketch 48.1 (47250) - http://www.bohemiancoding.com/sketch -->
    <desc>Created with Sketch.</desc>
    <defs></defs>
    <g id="Page-1" stroke="none" stroke-width="1" fill="none" fill-rule="evenodd">
        <g id="Desktop" transform="translate(-117.000000, -91.000000)" stroke="#FFFFFF">
            <g id="Group-3" transform="translate(118.000000, 92.000000)">
                <circle id="Oval-2" cx="49.5" cy="10.5" r="4"></circle>
                <circle id="Oval-2-Copy" cx="60.5" cy="87.5" r="4"></circle>
                <circle id="Oval-2-Copy-12" cx="4" cy="183.5" r="4"></circle>
                <circle id="Oval-2-Copy-13" cx="4" cy="277.5" r="4"></circle>
                <circle id="Oval-2-Copy-14" cx="149.5" cy="374.5" r="4"></circle>
                <circle id="Oval-2-Copy-2" cx="194.5" cy="38.5" r="4"></circle>
                <circle id="Oval-2-Copy-3" cx="194.5" cy="194.5" r="4"></circle>
                <circle id="Oval-2-Copy-4" cx="85.5" cy="266.5" r="4"></circle>
                <circle id="Oval-2-Copy-5" cx="277.5" cy="379.5" r="4"></circle>
                <circle id="Oval-2-Copy-6" cx="460.5" cy="302.5" r="4"></circle>
                <circle id="Oval-2-Copy-7" cx="341.5" cy="297.5" r="4"></circle>
                <circle id="Oval-2-Copy-18" cx="501.5" cy="473.5" r="4"></circle>
                <circle id="Oval-2-Copy-8" cx="364.5" cy="170.5" r="4"></circle>
                <circle id="Oval-2-Copy-9" cx="266.5" cy="128.5" r="4"></circle>
                <circle id="Oval-2-Copy-10" cx="352.5" cy="76.5" r="4"></circle>
                <circle id="Oval-2-Copy-11" cx="302.5" cy="4" r="4"></circle>
                <circle id="Oval-2" cx="49.5" cy="10.5" r="4"></circle>
                <circle id="Oval-2" cx="50" cy="445" r="4"></circle>
                <circle id="Oval-2-Copy" cx="61" cy="522" r="4"></circle>
                <circle id="Oval-2-Copy-12" cx="6" cy="618" r="4"></circle>
                <circle id="Oval-2-Copy-13" cx="6" cy="712" r="4"></circle>
                <circle id="Oval-2-Copy-14" cx="150" cy="809" r="4"></circle>
                <circle id="Oval-2-Copy-2" cx="195" cy="473" r="4"></circle>
                <circle id="Oval-2-Copy-3" cx="195" cy="629" r="4"></circle>
                <circle id="Oval-2-Copy-4" cx="86" cy="701" r="4"></circle>
                <circle id="Oval-2-Copy-5" cx="278" cy="814" r="4"></circle>
                <circle id="Oval-2-Copy-6" cx="461" cy="737" r="4"></circle>
                <circle id="Oval-2-Copy-7" cx="342" cy="732" r="4"></circle>
                <circle id="Oval-2-Copy-19" cx="535" cy="821" r="4"></circle>
                <circle id="Oval-2-Copy-8" cx="414" cy="651" r="4"></circle>
                <circle id="Oval-2-Copy-9" cx="267" cy="563" r="4"></circle>
                <circle id="Oval-2-Copy-10" cx="420" cy="579" r="4"></circle>
                <circle id="Oval-2-Copy-11" cx="303" cy="440" r="4"></circle>
                <circle id="Oval-2" cx="50" cy="445" r="4"></circle>
                <circle id="Oval-2" cx="688.5" cy="20.5" r="4"></circle>
                <circle id="Oval-2-Copy-15" cx="523.5" cy="44.5" r="4"></circle>
                <circle id="Oval-2-Copy-16" cx="566.5" cy="86.5" r="4"></circle>
                <circle id="Oval-2-Copy-17" cx="512.5" cy="172.5" r="4"></circle>
                <circle id="Oval-2-Copy" cx="699.5" cy="97.5" r="4"></circle>
                <circle id="Oval-2-Copy-12" cx="644.5" cy="193.5" r="4"></circle>
                <circle id="Oval-2-Copy-13" cx="644.5" cy="287.5" r="4"></circle>
                <circle id="Oval-2-Copy-14" cx="788.5" cy="384.5" r="4"></circle>
                <circle id="Oval-2-Copy-2" cx="833.5" cy="48.5" r="4"></circle>
                <circle id="Oval-2-Copy-3" cx="833.5" cy="204.5" r="4"></circle>
                <circle id="Oval-2-Copy-4" cx="724.5" cy="276.5" r="4"></circle>
                <circle id="Oval-2-Copy-5" cx="916.5" cy="389.5" r="4"></circle>
                <circle id="Oval-2-Copy-6" cx="1099.5" cy="312.5" r="4"></circle>
                <circle id="Oval-2-Copy-7" cx="980.5" cy="307.5" r="4"></circle>
                <circle id="Oval-2-Copy-8" cx="980.5" cy="175.5" r="4"></circle>
                <circle id="Oval-2-Copy-9" cx="905.5" cy="138.5" r="4"></circle>
                <circle id="Oval-2-Copy-10" cx="991.5" cy="86.5" r="4"></circle>
                <circle id="Oval-2-Copy-11" cx="941.5" cy="15.5" r="4"></circle>
                <circle id="Oval-2" cx="688.5" cy="20.5" r="4"></circle>
                <circle id="Oval-2" cx="689" cy="455" r="4"></circle>
                <circle id="Oval-2-Copy" cx="700" cy="532" r="4"></circle>
                <circle id="Oval-2-Copy-12" cx="561" cy="633" r="4"></circle>
                <circle id="Oval-2-Copy-13" cx="645" cy="722" r="4"></circle>
                <circle id="Oval-2-Copy-14" cx="789" cy="819" r="4"></circle>
                <circle id="Oval-2-Copy-2" cx="834" cy="483" r="4"></circle>
                <circle id="Oval-2-Copy-3" cx="834" cy="639" r="4"></circle>
                <circle id="Oval-2-Copy-4" cx="725" cy="711" r="4"></circle>
                <circle id="Oval-2-Copy-5" cx="917" cy="824" r="4"></circle>
                <circle id="Oval-2-Copy-6" cx="1100" cy="747" r="4"></circle>
                <circle id="Oval-2-Copy-7" cx="981" cy="742" r="4"></circle>
                <circle id="Oval-2-Copy-8" cx="981" cy="610" r="4"></circle>
                <circle id="Oval-2-Copy-9" cx="906" cy="573" r="4"></circle>
                <circle id="Oval-2-Copy-10" cx="992" cy="521" r="4"></circle>
                <circle id="Oval-2-Copy-11" cx="942" cy="450" r="4"></circle>
                <circle id="Oval-2" cx="602" cy="414" r="4"></circle>
            </g>
        </g>
    </g>
</svg>