
<svg width="1257px" height="884px" viewBox="0 0 1257 884" version="1.1" xmlns="http://www.w3.org/2000/svg" xmlns:xlink="http://www.w3.org/1999/xlink">
    <!-- Generator: Sketch 48.1 (47250) - http://www.bohemiancoding.com/sketch -->
    <desc>Created with Sketch.</desc>
    <defs></defs>
    <g id="Page-1" stroke="none" stroke-width="1" fill="none" fill-rule="evenodd" fill-opacity="0.310000002" opacity="0.506567029">
        <g id="Desktop" transform="translate(-99.000000, -47.000000)" fill="#FFFFFF" stroke="#FFFFFF">
            <g id="Group-2" transform="translate(100.000000, 48.000000)">
                <circle id="Oval" cx="187" cy="153" r="26"></circle>
                <circle id="Oval-Copy" cx="345" cy="382" r="26"></circle>
                <circle id="Oval-Copy-2" cx="523" cy="231" r="26"></circle>
                <circle id="Oval-Copy-3" cx="813" cy="589" r="26"></circle>
                <circle id="Oval-Copy-19" cx="957" cy="763" r="26"></circle>
                <circle id="Oval-Copy-20" cx="1113" cy="615" r="26"></circle>
                <circle id="Oval-Copy-4" cx="575" cy="464" r="26"></circle>
                <circle id="Oval-Copy-5" cx="397" cy="589" r="26"></circle>
                <circle id="Oval-Copy-6" cx="161" cy="563" r="26"></circle>
                <circle id="Oval-Copy-7" cx="78" cy="382" r="26"></circle>
                <circle id="Oval-Copy-8" cx="26" cy="737" r="26"></circle>
                <circle id="Oval-Copy-9" cx="266" cy="737" r="26"></circle>
                <circle id="Oval-Copy-10" cx="423" cy="856" r="26"></circle>
                <circle id="Oval-Copy-11" cx="594" cy="856" r="26"></circle>
                <circle id="Oval-Copy-12" cx="594" cy="711" r="26"></circle>
                <circle id="Oval-Copy-13" cx="787" cy="382" r="26"></circle>
                <circle id="Oval-Copy-18" cx="983" cy="382" r="26"></circle>
                <circle id="Oval-Copy-21" cx="1229" cy="408" r="26"></circle>
                <circle id="Oval-Copy-14" cx="735" cy="179" r="26"></circle>
                <circle id="Oval-Copy-17" cx="1009" cy="78" r="26"></circle>
                <circle id="Oval-Copy-15" cx="549" cy="52" r="26"></circle>
                <circle id="Oval-Copy-16" cx="26" cy="26" r="26"></circle>
            </g>
        </g>
    </g>
</svg>